<?xml version="1.0" encoding="UTF-8"?><!DOCTYPE svg PUBLIC "-//W3C//DTD SVG 1.1//EN" "http://www.w3.org/Graphics/SVG/1.1/DTD/svg11.dtd"><svg xmlns="http://www.w3.org/2000/svg"><symbol id="icon-arrow-left" viewBox="0 0 11.2 18.2"><path d="M11.2 15.6l-7-6.5 7-6.5L9.8 0 0 9.1l9.8 9.1 1.4-2.6z"/></symbol><symbol id="icon-arrow-right" viewBox="0 0 11.2 18.2"><path d="M0 2.6l7 6.5-7 6.5 1.4 2.6 9.8-9.1L1.4 0 0 2.6z"/></symbol><symbol id="icon-body-armor" viewBox="0 0 616.6 728.8"><style>.st0{fill-rule:evenodd;clip-rule:evenodd}</style><g id="Layer_x5F_1"><g id="_572234648"><path id="_572234864" class="st0" d="M26.4 412.9c-4.6 0-8.3-3.7-8.3-8.3v-79.4c0-4.2 2.8-7.7 7-8.2 1.6-.4 20.3-5.1 34.6-40.2 14-34.6 25.6-105.5.8-246.1-1.5-8 .5-15.9 5.4-21.6C70.7 3.3 78 0 86 0h99.1c4.6 0 8.3 3.7 8.3 8.3s-3.7 8.3-8.3 8.3H86c-3.1 0-5.7 1.1-7.4 3.1-1.7 2-2.3 4.8-1.8 7.9 30.2 171.8 8.4 247.3-15.2 280.3-10 14-20.3 20.4-26.9 23.3v73.4c.1 4.6-3.7 8.3-8.3 8.3z"/><path id="_572234936" class="st0" d="M589.2 538c-4.6 0-8.3-3.7-8.3-8.3v-63.8c0-4.6 3.7-8.3 8.3-8.3s8.3 3.7 8.3 8.3v63.8c0 4.6-3.8 8.3-8.3 8.3z"/><path id="_572235368" class="st0" d="M307.8 728.8c-90.4 0-177.6-13.4-252.2-38.6-5.9-2-11.8-4.1-17.5-6.2-12-4.5-20-16.1-20-28.8V591c0-4.6 3.7-8.3 8.3-8.3 4.6 0 8.3 3.7 8.3 8.3v64.1c0 5.8 3.7 11.2 9.2 13.2 5.6 2.1 11.3 4.1 17 6.1 72.9 24.7 158.3 37.8 246.9 37.8s173.9-13.1 246.9-37.8c5.7-1.9 11.4-4 17-6.1 5.5-2.1 9.2-7.4 9.2-13.2V591c0-4.6 3.7-8.3 8.3-8.3s8.3 3.7 8.3 8.3v64.1c0 12.8-8.1 24.4-20 28.8-5.7 2.1-11.6 4.3-17.5 6.2-74.6 25.4-161.8 38.7-252.2 38.7z"/><path id="_572235032" class="st0" d="M589.2 412.9c-4.6 0-8.3-3.7-8.3-8.3v-73.4c-6.6-2.9-16.9-9.2-26.9-23.3-23.6-33-45.4-108.4-15.2-280.3.5-3.1-.1-5.9-1.8-7.9s-4.3-3.1-7.4-3.1h-99.1c-4.6 0-8.3-3.7-8.3-8.3 0-4.6 3.7-8.3 8.3-8.3h99.1c8 0 15.3 3.3 20.1 9.1 4.9 5.8 6.8 13.6 5.5 21.5-24.7 140.7-13.2 211.5.8 246.2 14.2 35.1 32.9 39.9 34.6 40.2 4.2.5 7 4 7 8.2v79.4c-.1 4.6-3.9 8.3-8.4 8.3z"/><path id="_572235416" class="st0" d="M26.4 538c-4.6 0-8.3-3.7-8.3-8.3v-63.8c0-4.6 3.7-8.3 8.3-8.3 4.6 0 8.3 3.7 8.3 8.3v63.8c.1 4.6-3.7 8.3-8.3 8.3z"/><path id="_572234888" class="st0" d="M185.1 8.4zm9.5 15.9c7.8 55.5 55.6 98.4 113.2 98.4 57.8 0 105.7-43.1 113.3-98.9-65.6 37.1-125.3 34.3-165 24.8-27.2-6.5-48.5-16.8-61.5-24.3zm113.2 115.1c-72.3 0-131-58.8-131-131.1 0-3.2 1.8-6.1 4.6-7.5 1.2-.6 2.4-.9 3.6-.9h.1c1.8 0 3.5.6 5 1.7.4.4 27.9 20.8 70.5 30.8 56.9 13.4 112.5 2.9 165.3-31.2 2.6-1.7 5.8-1.8 8.5-.3 2.7 1.4 4.4 4.3 4.4 7.3 0 72.4-58.8 131.2-131 131.2z"/><path id="_572235464" class="st0" d="M161.5 264.7h292.6v-39.2H161.5v39.2zm292.6 2.9zm3 13.7H158.5c-7.6 0-13.8-6.2-13.8-13.8v-45.1c0-7.6 6.2-13.8 13.8-13.8H457c7.6 0 13.8 6.2 13.8 13.8v45.1c0 3.6-1.4 7.1-4 9.7-2.6 2.7-6.1 4.1-9.7 4.1z"/><path id="_572235296" class="st0" d="M16.7 457.6h118.9V413H16.7v44.6zm118.9 2.7zm2.7 13.9H13.9C6.2 474.2 0 468 0 460.3v-50.1c0-7.7 6.2-13.9 13.9-13.9h124.4c7.7 0 13.9 6.3 13.9 13.9v50.1c0 3.7-1.4 7.2-4 9.8-2.6 2.7-6.2 4.1-9.9 4.1z"/><path id="_572235248" class="st0" d="M16.7 582.7h118.9v-44.6H16.7v44.6zm118.9 2.7zm2.7 13.9H13.9c-7.7 0-13.9-6.2-13.9-13.9v-50.1c0-7.7 6.2-13.9 13.9-13.9h124.4c7.7 0 13.9 6.3 13.9 13.9v50.1c0 3.7-1.4 7.2-4 9.9-2.6 2.6-6.2 4-9.9 4z"/><path id="_572234192" class="st0" d="M481.1 457.6H600V413H481.1v44.6zm121.6 16.6H478.4c-7.7 0-14-6.2-14-13.9v-50.1c0-7.7 6.3-13.9 13.9-13.9h124.3c7.7 0 13.9 6.3 13.9 13.9v50.1c.1 7.7-6.1 13.9-13.8 13.9z"/><path id="_572234480" class="st0" d="M481.1 582.7H600v-44.6H481.1v44.6zm121.6 16.6H478.4c-7.7 0-14-6.2-14-13.9v-50.1c0-7.7 6.3-13.9 13.9-13.9h124.3c7.7 0 13.9 6.3 13.9 13.9v50.1c.1 7.7-6.1 13.9-13.8 13.9z"/><path id="_572234432" class="st0" d="M208.7 582.7h199.2v-20.8H208.7v20.8zm202.1 16.6H205.9c-7.6 0-13.8-6.2-13.8-13.8V559c0-7.6 6.2-13.8 13.8-13.8h204.9c7.6 0 13.8 6.2 13.8 13.8v26.5c0 7.6-6.2 13.8-13.8 13.8z"/><path id="_572234288" class="st0" d="M208.7 508.2h199.2v-20.8H208.7v20.8zm202.1 16.7H205.9c-7.6 0-13.8-6.2-13.8-13.8v-26.5c0-7.6 6.2-13.8 13.8-13.8h204.9c7.6 0 13.8 6.2 13.8 13.8V511c0 7.7-6.2 13.9-13.8 13.9z"/><path id="_572234768" class="st0" d="M208.7 433.7h199.2V413H208.7v20.7zm202.1 16.7H205.9c-7.6 0-13.8-6.2-13.8-13.8v-26.5c0-7.6 6.2-13.8 13.8-13.8h204.9c7.6 0 13.8 6.2 13.8 13.8v26.5c0 7.6-6.2 13.8-13.8 13.8z"/></g></g></symbol><symbol id="icon-chevron-down" viewBox="0 0 37.1 21.2"><path d="M5.3 0l13.2 13.2L31.8 0l5.3 2.6-18.6 18.6L0 2.6 5.3 0z"/></symbol><symbol id="icon-chevron-up" viewBox="0 0 37.1 21.2"><path d="M31.8 21.2L18.6 7.9 5.3 21.2 0 18.5 18.6 0l18.6 18.5-5.4 2.7z"/></symbol><symbol id="icon-dtac-logo-small" viewBox="0 0 85.1 114.9"><path d="M48.6 105.5c-10.7-.4-20.7-5.3-28.2-14-7.6-8.8-11.9-20.3-12.2-32.6h27c.1-.9.2-1.9.4-2.9H8.2c.3-12.3 4.6-23.8 12.2-32.5S38 9.8 48.6 9.5v10.1c.8-.8 1.6-1.5 2.4-2.1V0h-2.4v6.6c-11.3.4-21.9 5.6-30 14.9C10.6 30.8 6 43 5.7 56H0v2.9h5.7C6 72 10.6 84.2 18.6 93.5s18.7 14.5 30 14.9v6.6H51V87.4h-2.4v18.1zM72 28l-4.3-1.4 4.3 4.8V28z"/><path d="M74.3 75.9h-6.6l-5.8-37 3.4 4.2c-.4 1.4-.8 4.1.2 6.5.7 1.7 1.9 2.8 3.7 3.4 2 .7 3.7.5 5.2-.5 2.2-1.5 2.9-4.4 3.2-5.6.1-.3.1-.7.1-1V21.5l7.5-8.5H72V6.8s-11.6 0-15.9 3v3.7l-2.4-2.7c-.9.5-1.9 1-2.8 1.7v4.7l-2.4-2.7c-.6.6-1.2 1.2-1.8 1.9v5.5l-2.3-2.6c-9.7 11.8-11 40.5-11 56.6h-6v5.7h-4.7v8.2h56.1v-8.2h-4.6v-5.7h.1zM37.4 61.3c.1-.9.2-1.9.4-2.9 1.7-12 5-26 11.7-34.6.8-1 1.6-1.9 2.4-2.7 3.5-3.4 7.7-5.4 12.8-5.4H79l-4 4.5v25.9c-.1.6-.6 2.8-2 3.8-.8.6-1.9.6-3.2.2-1.1-.4-1.8-1-2.2-1.9-.7-1.7-.1-4.2.2-5l.3-.9-7.5-9.3c-.2-.2-2.1-2.9.7-6.4l-1.8-1.9c-3.4 4.4-.6 10.4-.6 10.4l6.4 40.7h-29c.1-3.6.4-8.7 1.1-14.5zm-7.5 17.3h42v2.7h-42v-2.7zm46.6 5.7V87H25.2v-2.7h51.3z"/></symbol><symbol id="icon-dtac-logo" viewBox="0 0 261 116"><path d="M103.6 73.5h-2.1v12.2h2.3V90h-9.6v-4.2h2.3V73.5h-2.1V77h-3.9v-7.9h16.9V77h-3.9v-3.5zM131.6 90h-8.5v-4.2h1.5l-.6-2.2h-5.1l-.6 2.2h1.5V90h-8.3v-4.2h2l3.6-12.4H115v-4.2h9.8l4.8 16.6h2V90zm-10.2-16.6l-1.6 6.4h3.3l-1.7-6.4zM141.3 90c-2.4 0-3.5-1.3-3.5-4.1V73.2c0-2.7 1.2-4.1 3.6-4.1h7.3c2.4 0 3.5 1.3 3.5 4.1v3.9h-4.9v-2.8c0-.4-.1-.5-.5-.5h-3.6c-.4 0-.5.1-.5.5v10.5c0 .4.1.5.5.5h3.6c.4 0 .5-.1.5-.5V82h4.9v3.9c0 2.7-1.1 4.1-3.5 4.1h-7.4zM171.7 73.5h-2.1v12.2h2.3V90h-9.6v-4.2h2.3V73.5h-2.1V77h-3.9v-7.9h16.9V77h-3.9v-3.5zM189.4 85.8h2.3V90h-9.6v-4.2h2.3V73.4h-2.3v-4.2h9.6v4.2h-2.3v12.4zM202.1 90c-2.4 0-3.5-1.3-3.5-4.1V73.2c0-2.7 1.2-4.1 3.6-4.1h7.3c2.4 0 3.5 1.3 3.5 4.1v3.9h-4.9v-2.8c0-.4-.1-.5-.5-.5H204c-.4 0-.5.1-.5.5v10.5c0 .4.1.5.5.5h3.6c.4 0 .5-.1.5-.5V82h4.9v3.9c0 2.7-1.1 4.1-3.5 4.1h-7.4zM239.2 90h-8.5v-4.2h1.5l-.6-2.2h-5.1l-.6 2.2h1.5V90h-8.3v-4.2h2l3.6-12.4h-2.1v-4.2h9.8l4.8 16.6h2V90zM229 73.4l-1.6 6.4h3.3l-1.7-6.4zM245.3 90v-4.2h2.2V73.4h-2.2v-4.2h9.4v4.2h-2.3v12.1h4v-3.6h3.9V90h-15zM260 61H91v4h169v-4zM90.6 13.4h7.2c4.7 0 7.8.2 9.4.7 1.6.5 2.9 1.3 3.7 2.4.9 1.1 1.4 2.4 1.6 3.8.2 1.4.3 4.1.3 8.1v15c0 3.8-.2 6.4-.5 7.7-.3 1.3-.9 2.3-1.6 3-.8.7-1.7 1.2-2.9 1.5-1.1.3-2.9.4-5.2.4h-12V13.4zm9.7 7.3v28.1c1.4 0 2.2-.3 2.6-1 .3-.6.5-2.4.5-5.2V26c0-1.9-.1-3.2-.2-3.7s-.3-.9-.7-1.2c-.4-.2-1.2-.4-2.2-.4zM116.6 13.4h16.1V22h-6.4v8.1h6v8.1h-6v9.4h7.1v8.5h-16.7l-.1-42.7zM158.5 32h-9.6v-7.4c0-2.2-.1-3.5-.3-4-.2-.5-.7-.8-1.4-.8-.8 0-1.3.3-1.5 1-.2.7-.3 2.1-.3 4.2v19.8c0 2.1.1 3.4.3 4.1.2.6.7 1 1.4 1 .8 0 1.2-.3 1.4-1s.3-2.1.3-4.5V39h9.6v1.7c0 4.4-.3 7.6-.8 9.4-.5 1.9-1.7 3.5-3.6 4.9-1.9 1.4-4.1 2.1-6.9 2.1s-5.1-.6-7-1.8c-1.8-1.2-3-2.8-3.6-4.9-.6-2.1-.9-5.2-.9-9.4V28.5c0-3.1.1-5.4.3-6.9.2-1.5.7-3 1.6-4.4.9-1.4 2.2-2.5 3.8-3.4 1.6-.8 3.5-1.2 5.6-1.2 2.8 0 5.2.6 7 1.9 1.8 1.3 3.1 2.8 3.6 4.7.6 1.9.9 4.8.9 8.8v4h.1zM171.6 13.4v42.7H162V13.4h9.6zM195.9 26.3H187v-3.2c0-1.5-.1-2.4-.3-2.8-.2-.4-.6-.6-1.1-.6-.6 0-1 .3-1.3.8-.3.5-.4 1.4-.4 2.5 0 1.4.2 2.5.5 3.2.3.7 1.2 1.6 2.7 2.6 4.3 2.9 7 5.3 8.1 7.2 1.1 1.9 1.7 4.9 1.7 9.1 0 3-.3 5.3-.9 6.7-.6 1.4-1.8 2.6-3.6 3.6s-3.8 1.5-6.2 1.5c-2.6 0-4.8-.6-6.6-1.7-1.8-1.1-3-2.6-3.6-4.3-.6-1.7-.8-4.2-.8-7.4v-2.8h8.9V46c0 1.6.1 2.6.4 3.1.3.5.7.7 1.3.7s1.1-.3 1.4-.9c.3-.6.5-1.4.5-2.6 0-2.5-.3-4.2-.9-4.9-.6-.8-2.1-2.1-4.5-3.9-2.4-1.8-4-3.2-4.8-4-.8-.8-1.4-2-1.9-3.4-.5-1.5-.8-3.3-.8-5.6 0-3.3.4-5.7 1.1-7.2.7-1.5 1.9-2.7 3.5-3.5 1.6-.9 3.6-1.3 5.9-1.3 2.5 0 4.6.5 6.4 1.4 1.8.9 2.9 2.1 3.5 3.5s.9 3.8.9 7.2l-.2 1.7zM209.4 13.4v42.7h-9.6V13.4h9.6zM235.2 38.4c0 4.3-.1 7.3-.3 9.1-.2 1.8-.7 3.4-1.6 4.9-.9 1.5-2.2 2.6-3.7 3.4-1.6.8-3.4 1.2-5.5 1.2s-3.8-.4-5.3-1.1c-1.6-.7-2.8-1.9-3.8-3.4s-1.5-3.1-1.7-4.9c-.2-1.8-.3-4.8-.3-9.2v-7.3c0-4.3.1-7.3.3-9.1.2-1.8.7-3.4 1.6-4.9.9-1.5 2.2-2.6 3.7-3.4 1.6-.8 3.4-1.2 5.5-1.2 2 0 3.8.4 5.3 1.1 1.6.7 2.8 1.9 3.8 3.4s1.5 3.1 1.7 4.9c.2 1.8.3 4.8.3 9.2v7.3zm-9.6-14c0-2-.1-3.3-.3-3.8-.2-.6-.6-.8-1.2-.8-.5 0-.9.2-1.2.7-.3.5-.4 1.8-.4 4v19.9c0 2.5.1 4 .3 4.6.2.6.6.9 1.2.9s1.1-.3 1.3-1c.2-.7.3-2.3.3-4.8V24.4zM260.3 13.4v42.7h-8.4l-5-19.4v19.4h-8.1V13.4h8.1l5.4 19.2V13.4h8zM48.6 105.9c-10.7-.4-20.7-5.3-28.2-14-7.6-8.8-11.9-20.3-12.2-32.6h27c.1-.9.2-1.9.4-2.9H8.2c.3-12.3 4.6-23.8 12.2-32.5S38 10.2 48.6 9.9V20c.8-.8 1.6-1.5 2.4-2.1V.4h-2.4V7c-11.3.4-21.9 5.6-30 14.9-8 9.3-12.6 21.5-12.9 34.6H0v2.9h5.7c.3 13 4.9 25.2 12.9 34.5s18.7 14.5 30 14.9v6.6H51V87.8h-2.4v18.1zM72 28.5l-4.3-1.4 4.3 4.8v-3.4z"/><path d="M74.3 76.3h-6.6l-5.8-37 3.4 4.2c-.4 1.4-.8 4.1.2 6.5.7 1.7 1.9 2.8 3.7 3.4 2 .7 3.7.5 5.2-.5 2.2-1.5 2.9-4.4 3.2-5.6.1-.3.1-.7.1-1V21.9l7.5-8.5H72.1V7.2s-11.6 0-15.9 3v3.7l-2.4-2.7c-.9.5-1.9 1-2.8 1.7v4.7l-2.4-2.7c-.6.6-1.2 1.2-1.8 1.9v5.5l-2.3-2.6c-9.7 11.8-11 40.5-11 56.6h-6V82h-4.7v8.2h56.1V82h-4.6v-5.7zM37.4 61.7c.1-.9.2-1.9.4-2.9 1.7-12 5-26 11.7-34.6.8-1 1.6-1.9 2.4-2.7 3.5-3.4 7.7-5.4 12.8-5.4H79l-4 4.5v25.9c-.1.6-.6 2.8-2 3.8-.8.6-1.9.6-3.2.2-1.1-.4-1.8-1-2.2-1.9-.7-1.7-.1-4.2.2-5l.3-.9-7.5-9.3c-.2-.2-2.1-2.9.7-6.4l-1.8-1.9c-3.4 4.4-.6 10.4-.6 10.4l6.4 40.7h-29c.1-3.6.4-8.7 1.1-14.5zM29.9 79h42v2.7h-42V79zm46.6 5.7v2.7H25.2v-2.7h51.3z"/></symbol><symbol id="icon-phone-full" viewBox="0 0 14.6 14.6"><path d="M11.8 5.6h-1.1c0-.4-.2-.9-.5-1.2-.3-.3-.8-.5-1.2-.5V2.8c.7 0 1.5.3 2 .8.5.6.8 1.3.8 2z"/><path d="M14.1 5.6H13c0-1-.4-2-1.2-2.8C11 2.1 10 1.7 9 1.7V.6c1.3 0 2.6.5 3.6 1.5.9.9 1.5 2.2 1.5 3.5zm-4.4 4.8L11 9.1c.2-.2.4-.3.6-.3.2 0 .5 0 .7.1l1.5.6c.2.1.4.2.6.4.1.2.2.4.2.7v2.8c0 .2 0 .3-.1.5s-.2.3-.3.4c-.1.1-.3.2-.4.3-.2.1-.3.1-.5.1C2.6 14 .4 4.8 0 1.4V.9C.1.7.1.6.3.5S.6.3.7.2 1 0 1.2 0H4c.2 0 .5.1.7.2.1.1.3.3.4.6l.6 1.5c.1.2.1.5.1.7 0 .2-.2.4-.3.6L4.2 4.9s.7 4.9 5.5 5.5z"/></symbol><symbol id="icon-reticule" viewBox="0 0 54 54"><path d="M47.3 26.4c-.2-5.2-2.2-10.1-6-13.8-3.7-3.7-8.6-5.8-13.8-6V20h-1.2V6.7c-5.2.2-10.1 2.2-13.8 6-3.7 3.7-5.8 8.6-6 13.8h4.1v1.2H6.7c.2 5.2 2.2 10.1 6 13.8 3.7 3.7 8.6 5.8 13.8 6V34h1.2v13.5c5.2-.2 10.1-2.2 13.8-6 3.7-3.7 5.8-8.6 6-13.8h-4.1v-1.2h3.9z"/><path d="M27 0C12.1 0 0 12.1 0 27s12.1 27 27 27 27-12.1 27-27S41.9 0 27 0zm21.5 27.6c-.2 5.5-2.4 10.7-6.3 14.6-3.9 3.9-9.1 6.2-14.6 6.3v2.8h-1.2v-2.8c-5.5-.2-10.7-2.4-14.6-6.3-3.9-3.9-6.2-9.1-6.3-14.6H2.7v-1.2h2.8c.2-5.5 2.4-10.7 6.3-14.6 3.9-3.9 9.1-6.2 14.6-6.3V2.7h1.2v2.8c5.5.2 10.7 2.4 14.6 6.3 3.9 3.9 6.2 9.1 6.3 14.6h2.8v1.2h-2.8z"/></symbol><symbol id="icon-tiktok" viewBox="0 0 448 512"><!--! Font Awesome Pro 6.4.2 by @fontawesome - https://fontawesome.com License - https://fontawesome.com/license (Commercial License) Copyright 2023 Fonticons, Inc.--><path d="M448 209.91a210.06 210.06 0 0 1-122.77-39.25v178.72A162.55 162.55 0 1 1 185 188.31v89.89a74.62 74.62 0 1 0 52.23 71.18V0h88a121.18 121.18 0 0 0 1.86 22.17A122.18 122.18 0 0 0 381 102.39a121.43 121.43 0 0 0 67 20.14z"/></symbol><symbol id="icon-x-twitter" viewBox="0 0 512 512"><!--! Font Awesome Pro 6.4.2 by @fontawesome - https://fontawesome.com License - https://fontawesome.com/license (Commercial License) Copyright 2023 Fonticons, Inc.--><path d="M389.2 48h70.6L305.6 224.2 487 464H345L233.7 318.6 106.5 464H35.8l164.9-188.5L26.8 48h145.6l100.5 132.9L389.2 48zm-24.8 373.8h39.1L151.1 88h-42l255.3 333.8z"/></symbol></svg>