<?xml version="1.0" encoding="UTF-8"?><!DOCTYPE svg PUBLIC "-//W3C//DTD SVG 1.1//EN" "http://www.w3.org/Graphics/SVG/1.1/DTD/svg11.dtd"><svg xmlns="http://www.w3.org/2000/svg"><symbol id="icon-bar" viewBox="0 0 30 19"><title>icon-bar</title><path d="M0 0h30v3H0zM0 8h30v3H0zM0 16h30v3H0z"/></symbol><symbol id="icon-close" viewBox="0 0 28.7 26.6"><title>icon-close</title><path d="M28.6 3L26 0 14.3 10.6 2.6 0 0 3l11.3 10.3L0 23.6l2.6 3L14.3 16 26 26.6l2.6-3-11.3-10.3z"/></symbol><symbol id="icon-filter-down" viewBox="0 0 26.2 19"><g fill="#1c1c1d"><path d="M0 0h26.2v3H0zM4 8h17.6v3H4zM10 16h6v3h-6z"/></g></symbol><symbol id="icon-home" viewBox="0 0 35.8 33.4"><path d="M32.9 33.4s-.1 0 0 0h-8.8c-.8 0-1.5-.3-2-.9s-.8-1.3-.8-2.1v-8.3c0-.2-.1-.3-.1-.4-.1 0-.2-.1-.3-.1h-6.1c-.2 0-.3.1-.4.1 0 .1-.1.2-.1.3v8.4c0 1.6-1.4 2.9-3 2.9H3c-.8 0-1.5-.3-2-.9s-1-1.2-1-2v-20c0-1.5.9-2.9 2.2-3.6h.1L16.1.5c1.3-.6 2.8-.6 4.2 0l13.3 6.3c1.4.7 2.2 2.1 2.3 3.6V30.6c-.1 1.6-1.4 2.8-3 2.8zM20.8 19.1c.7 0 1.5.3 2 .8.6.5.9 1.3.9 2.1v8.4c0 .2.1.3.1.4 0 .1.2.1.3.1h8.6c.2 0 .3-.1.4-.1.1 0 .1-.2.1-.3V10.4c0-.6-.4-1.1-.9-1.4L19.2 2.7c-.6-.3-1.4-.3-2.1 0L3.4 9c-.5.3-.9.8-.9 1.4v20c0 .2.1.3.1.4 0 .1.2.1.3.1h8.2c.2 0 .3-.1.4-.1.1 0 .1-.2.1-.3v-8.4c0-.8.3-1.5.8-2.1s1.3-.9 2.1-.9h6.3z"/></symbol><symbol id="icon-image-gallery" viewBox="0 0 44.6 34.1"><path d="M40.107 32.424l-33.3-6.1 4.5-24.6 33.3 6.1-4.5 24.6zm-30.4-8.1l28.3 5.2 3.6-19.7-28.3-5.2-3.6 19.7z"/><path d="M7.307 34.024l-7.3-23.9 11.1-3.4.7 2.4-8.7 2.7 5.9 19.1 13.1-4 .8 2.4zM31.907 7.624l-1.4-4.5-9.2 2.8-.7-2.4 11.6-3.5 2.1 6.8z"/><path d="M18.507 16.224c-2 0-3.6-1.6-3.6-3.6s1.6-3.6 3.6-3.6 3.6 1.6 3.6 3.6-1.6 3.6-3.6 3.6zm0-6.1c-1.4 0-2.6 1.2-2.6 2.6s1.2 2.6 2.6 2.6 2.6-1.2 2.6-2.6-1.2-2.6-2.6-2.6zM39.007 31.124l-23-3.5-2-1.6 12.5-11.4 3 5.5 6.2-6.7 4.8 10.1v3.7l-1.5 3.9zm-22.6-4.4l21.9 3.4 1.1-3v-3.4l-4.1-8.5-6.1 6.6-3-5.6-10.6 9.7.8.8z"/></symbol><symbol id="icon-roar-internet-marketing" viewBox="0 0 2836 1024"><path class="path1" d="M2457.984 567.904c-1.888-62.464-6.24-104.288-13.12-125.568-14.368-41.824-44.064-67.744-89.024-77.792-10.656-2.432-19.328-3.392-26.24-2.752h-7.456c92.448-18.144 138.688-72.192 138.688-162.144 0-126.208-69.376-189.312-208.064-189.312h-414.144v494.4l-179.936-494.4h-221.152l-154.08 423.392c5.184-26.688 7.872-54.976 7.872-85.12 0-105.536-31.712-190.048-95.136-253.504C1132.768 31.712 1048.288 0 942.688 0c-104.96 0-188.992 31.904-252.064 95.616-29.952 30.272-52.704 65.184-68.416 104.672 0-.256.032-.448.032-.64 0-126.208-69.312-189.312-208.064-189.312H0v674.72h224.928V454.528h86.176c41.248 0 67.488 15.264 78.752 45.92 3.104 9.376 6.816 42.496 11.2 99.296 1.856 30.016 7.488 58.432 16.864 85.312h225.856c-15.008-46.24-23.136-85.312-24.352-117.152-1.344-44.352-3.904-78.304-7.808-101.856 15.232 52.352 41.472 97.44 79.008 135.168 63.072 63.392 147.104 95.104 252.064 95.104s189.312-31.488 253.024-94.624c19.904-19.744 36.672-41.504 50.4-65.312l-54.144 148.736h222.112l29.984-91.84h208.064l30.016 91.84h381.376V454.592h86.24c41.248 0 67.456 15.264 78.688 45.92 3.136 9.376 6.88 42.496 11.264 99.296 1.888 30.016 7.488 58.432 16.864 85.312h225.888c-15.008-46.24-23.136-85.344-24.384-117.184l-.096-.032zM371.968 294.272c-12.544 5.6-33.152 8.448-61.856 8.448h-85.28V181.824h96.512c53.088 0 79.648 20.608 79.648 61.824 0 25.664-9.696 42.496-29.024 50.624zm145.248 70.24c-10.624-2.432-19.36-3.392-26.208-2.752h-7.52c55.072-10.816 93.568-34.464 115.84-70.752-2.272 18.464-3.424 37.632-3.424 57.568 0 31.936 2.944 61.92 8.8 89.984-14.88-39.584-43.936-64.352-87.488-74.048zm408.352 133.536c-42.88 14.592-79.296 6.816-109.344-23.136-54.336-54.4-39.296-123.744 45.088-208.096 33.984-34.016 66.912-56.768 98.72-68.256 42.816-14.592 79.264-6.848 109.312 23.2 30.048 30.016 37.568 66.688 22.528 109.984-11.04 32.288-33.376 65.152-66.912 98.72-34.016 34.048-67.136 56.576-99.392 67.584zm562.496-57.6l44.992-172.384c10.016-37.504 15.328-70.304 15.936-98.432 1.856 35.008 10.304 81.216 25.28 138.72a12900.039 12900.039 0 0 0 36.544 132.128l-122.752-.032zm722.56-146.176c-12.576 5.6-33.12 8.448-61.888 8.448h-85.312V181.824H2160c53.12 0 79.616 20.608 79.616 61.824 0 25.664-9.632 42.496-28.992 50.624z"/><path class="path2" d="M2695.68 253.984c0 11.2-1.568 23.392-4.672 36.544-5.6 22.496-8.448 34.656-8.448 36.544l-27.2 147.136h-129.312l-27.2-147.136c0-2.432-2.816-14.624-8.448-36.544-3.136-13.152-4.64-25.632-4.64-37.504V10.304h209.888v243.68zm-23.424 431.072h-168.672V516.384h168.672v168.672z"/><path class="path3" d="M5.184 817.12h26.688v197.696H5.184V817.12z"/><path class="path4" d="M64.864 809.216L211.04 959.488V817.12h27.008V1024L91.84 874.4v140.448H64.832l.032-205.632z"/><path class="path5" d="M257.44 817.12h120.896v27.008h-47.168v170.688H304.48V844.128h-47.008l-.032-27.008z"/><path class="path6" d="M397.664 817.12h109.568v27.008h-82.88v49.344h82.88v26.72h-82.88v67.968h82.88v26.688H397.664V817.12z"/><path class="path7" d="M534.336 817.12h42.848c21.312 0 38.656 5.312 52.064 15.904s20.096 24.192 20.096 40.704c0 13.216-4.352 24.928-12.992 35.072-8.64 10.08-22.176 17.248-40.576 21.376l57.44 84.64H622.24l-54.816-81.312h-6.048v81.312h-27.008l-.032-197.696zm27.008 23.904v68.896c39.84.832 59.744-10.688 59.744-34.624 0-8.384-2.304-15.232-6.976-20.576s-10.88-8.928-18.624-10.88c-7.744-1.888-19.136-2.816-34.144-2.816z"/><path class="path8" d="M678.592 809.216l146.176 150.272V817.12h27.008V1024L705.568 874.4v140.448H678.56l.032-205.632z"/><path class="path9" d="M881.088 817.12h109.568v27.008h-82.848v49.344h82.848v26.72h-82.848v67.968h82.848v26.688H881.088V817.12z"/><path class="path10" d="M1001.44 817.12h120.896v27.008h-47.168v170.688h-26.688V844.128h-47.04V817.12z"/><path class="path11" d="M1385.856 808.864l54.08 205.984h-26.464l-32.736-125.824-56.352 133.44-56.512-134.528-33.184 126.944h-26.304l54.08-205.952 61.888 147.328 61.504-147.392z"/><path class="path12" d="M1532.64 809.536l93.312 205.312h-28.32l-22.912-50.592h-83.904l-22.688 50.592h-28.096l92.608-205.312zm-.064 61.728l-31.616 70.496h63.552l-31.936-70.496z"/><path class="path13" d="M1646.048 817.12h42.816c21.312 0 38.688 5.312 52.096 15.904s20.096 24.192 20.096 40.704c0 13.216-4.384 24.928-13.024 35.072-8.672 10.08-22.144 17.248-40.544 21.376l57.44 84.64h-30.944l-54.88-81.312h-6.016v81.312h-27.04V817.12zm27.04 23.904v68.896c39.84.832 59.712-10.688 59.712-34.624 0-8.384-2.272-15.232-6.944-20.576s-10.88-8.928-18.624-10.88c-7.808-1.888-19.136-2.816-34.144-2.816z"/><path class="path14" d="M1791.904 817.12h27.008v80.32l83.872-80.32h37.664l-95.552 91.744 96.16 105.984h-34.4L1818.88 918.4v96.448h-27.008l.032-197.728z"/><path class="path15" d="M1956.192 817.12h109.568v27.008h-82.88v49.344h82.88v26.72h-82.88v67.968h82.88v26.688h-109.568V817.12z"/><path class="path16" d="M2076.576 817.12h120.896v27.008h-47.168v170.688h-26.752V844.128h-47.008V817.12z"/><path class="path17" d="M2218.528 817.12h26.688v197.696h-26.688V817.12z"/><path class="path18" d="M2278.176 809.216l146.24 150.272V817.12h26.944V1024l-146.144-149.6v140.448h-27.04V809.216z"/><path class="path19" d="M2673.952 848.8l-20 19.68c-20.192-19.744-43.52-29.664-70.016-29.664-23.2 0-42.464 7.392-57.888 22.336-15.424 14.912-23.168 33.504-23.168 55.808 0 19.552 7.456 37.12 22.432 52.8 14.976 15.616 35.584 23.456 61.856 23.456 39.424 0 64.192-17.12 74.336-51.392h-53.376v-26.976h84.288c0 13.536-.864 24.352-2.688 32.416-1.856 8-5.6 16.896-11.264 26.624-5.696 9.76-13.28 18.432-22.72 26.144s-19.616 13.184-30.4 16.48c-10.816 3.328-23.744 4.96-38.72 4.96-34.144 0-61.376-10.72-81.696-32.16-20.352-21.44-30.496-46.016-30.496-73.568 0-29.056 10.4-53.824 31.232-74.208 20.768-20.384 45.984-30.624 75.552-30.624 17.568 0 33.632 2.688 48.192 8 14.496 5.312 29.376 15.296 44.576 29.856h-.032z"/><path class="path20" d="M2755.136 14.656h-16V8.864h39.008v5.792h-16.128v46.912h-6.88V14.656z"/><path class="path21" d="M2828.384 38.4c-.384-7.36-.864-16.256-.864-22.72h-.128c-1.92 6.08-4 12.736-6.688 20l-9.312 25.568h-5.12l-8.576-25.088c-2.56-7.52-4.576-14.24-6.016-20.448h-.16c-.192 6.56-.576 15.296-1.024 23.264l-1.408 22.592h-6.464l3.648-52.704h8.672l8.992 25.472a259.835 259.835 0 0 1 5.344 17.76h.128c1.408-5.312 3.328-11.104 5.632-17.76l9.376-25.472h8.672l3.328 52.704h-6.752l-1.216-23.168h-.064z"/></symbol><symbol id="icon-view-boxes" viewBox="0 0 28 26.6"><path d="M0 0h12.2v11.5H0z"/><path d="M.5.5h11.2V11H.5zM0 15.076h12.2v11.5H0z"/><path d="M.5 15.576h11.2v10.5H.5z"/><g><path d="M15.795 0h12.2v11.5h-12.2z"/><path d="M16.295.5h11.2V11h-11.2z"/></g><g><path d="M15.795 15.076h12.2v11.5h-12.2z"/><path d="M16.295 15.576h11.2v10.5h-11.2z"/></g></symbol><symbol id="icon-view-lines" viewBox="0 0 28 24"><path d="M0 0h28v3H0zM0 7h28v3H0zM0 14h28v3H0zM0 21h28v3H0z"/></symbol></svg>